<svg width="36" height="30" viewBox="0 0 36 30" fill="none" xmlns="http://www.w3.org/2000/svg">
<path d="M22.92 19.92C22.4222 20.6476 21.7701 21.2565 21.0102 21.7035C20.2503 22.1504 19.4012 22.4244 18.5234 22.506C17.6456 22.5876 16.7606 22.4747 15.9314 22.1754C15.1021 21.8761 14.349 21.3978 13.7256 20.7744C13.1022 20.151 12.6239 19.3979 12.3246 18.5686C12.0253 17.7394 11.9124 16.8544 11.994 15.9766C12.0756 15.0988 12.3496 14.2497 12.7965 13.4898C13.2435 12.7299 13.8524 12.0778 14.58 11.58M31.5 28.5H4.5C3.70435 28.5 2.94129 28.1839 2.37868 27.6213C1.81607 27.0587 1.5 26.2956 1.5 25.5V9C1.5 8.20435 1.81607 7.44129 2.37868 6.87868C2.94129 6.31607 3.70435 6 4.5 6H9L31.5 28.5ZM13.5 1.5H22.5L25.5 6H31.5C32.2957 6 33.0587 6.31607 33.6213 6.87868C34.1839 7.44129 34.5 8.20435 34.5 9V23.01L13.5 1.5Z" stroke="#CCCCCC" stroke-width="1.5" stroke-linecap="square" stroke-linejoin="round"/>
</svg>
